{"title":"Tracks 2013 BRRip XviD titler","uid":10440482,"size":1305964069,"categoryP":"video","categoryS":"movies","magnet":"?xt=urn:btih:f695d2e2cb3943aed4fcb2c8a4cca9efbef90651&amp;dn=Tracks+2013+BRRip+XviD+titler&amp;tr=udp%3A%2F%2Ftracker.openbittorrent.com%3A80&amp;tr=udp%3A%2F%2Fopen.demonii.com%3A1337&amp;tr=udp%3A%2F%2Ftracker.coppersurfer.tk%3A6969&amp;tr=udp%3A%2F%2Fexodus.desync.com%3A6969","seeders":1,"leechers":0,"uploader":"movieZ.freak","files":4,"time":1403883268,"description":"SOURCE: Tracks 2013 720p BluRay x264 - ROVERS\n\n\n\n &lt;a href=&quot;\nhttp://www.imdb.com/title/tt2167266/&quot; rel=&quot;nofollow&quot; target=&quot;_NEW&quot;&gt;\nhttp://www.imdb.com/title/tt2167266/&lt;/a&gt;\n\n\n\n &lt;a href=&quot;\nhttp://www.rottentomatoes.com/m/tracks_2013/&quot; rel=&quot;nofollow&quot; target=&quot;_NEW&quot;&gt;\nhttp://www.rottentomatoes.com/m/tracks_2013/&lt;/a&gt;\n\n\n\n &lt;a href=&quot;\nhttp://en.wikipedia.org/wiki/Tracks_%282013_film%29&quot; rel=&quot;nofollow&quot; target=&quot;_NEW&quot;&gt;\nhttp://en.wikipedia.org/wiki/Tracks_%282013_film%29&lt;/a&gt;\n\n\n\n\n\n- SAMPLE: Yes\n\n\n- SUBTITLE: English\n\n\n- LANGUAGE / AUDIO: English\n\n\n\n\n\nSCREENSHOTS:\n-------------------    &lt;a href=&quot;\nhttp://someimage.com/p8NV&quot; rel=&quot;nofollow&quot; target=&quot;_NEW&quot;&gt;\nhttp://someimage.com/p8NV&lt;/a&gt;\n\n\n\nNOTE:\n---------- &lt;a href=&quot;\nhttp://en.wikipedia.org/wiki/Robyn_Davidson&quot; rel=&quot;nofollow&quot; target=&quot;_NEW&quot;&gt;\nhttp://en.wikipedia.org/wiki/Robyn_Davidson&lt;/a&gt;\n\n\n\nDIRECTOR: John Curran\n\n\nCAST: Mia Wasikowska, Adam Driver, Emma Booth, Jessica Tovey, Melanie Zanetti, Rainer Bock,...\n\n\nPLOT:\n-----------\nDirector John Curran (THE PAINTED VEIL, WE DON'T LIVE HERE ANYMORE) and the producers of THE KINGS SPEECH bring you the film TRACKS, which tells the remarkable true story of Robyn Davidson (Wasikowska), a young woman who leaves her life in the city to make a solo trek through almost 2,000 miles of sprawling Australian desert. Accompanied by only her dog and four unpredictable camels, she sets off on a life-changing journey of self-discovery. Along the way, she meets National Geographic photographer Rick Smolan (Driver) who begins to photograph her voyage.\n\n\n************************************\n\n- Duration: 1h 52mn\n\n- Bit rate : 1392 Kbps\n\n- Res: 720 x 302\n\n- AR: 2.40:1\n\n- FPS: 24.000 fps\n\n- Audio: AC3,  2 channels, 128 Kbps\n\n************************************\n\n\nGeneral\n-------------\nFormat : AVI\nFormat/Info : Audio Video Interleave\nFile size : 1.20 GiB\nDuration : 1h 52mn\nOverall bit rate : 1529 Kbps\nWriting library : VirtualDub build 35491\n\n\nVideo\n-----------\nFormat : MPEG-4 Visual\nFormat profile : Advanced Simple@L5\nFormat settings, BVOP : 2\nFormat settings, QPel : No\nFormat settings, GMC : No warppoints\nFormat settings, Matrix : Default (H.263)\nCodec ID : XVID\nCodec ID/Hint : XviD\nDuration : 1h 52mn\nBit rate : 1392 Kbps\nWidth : 720 pixels\nHeight : 302 pixels\nDisplay aspect ratio : 2.40:1\nFrame rate : 24.000 fps\nColor space : YUV\nChroma subsampling : 4:2:0\nBit depth : 8 bits\nScan type : Progressive\nCompression mode : Lossy\nBits/(Pixel*Frame) : 0.267\nStream size : 1.09 GiB (91%)\nWriting library : XviD 65\n\n\nAudio\n----------\nFormat : AC-3\nFormat/Info : Audio Coding 3\nMode extension : CM (complete main)\nFormat settings, Endianness : Big\nCodec ID : 2000\nDuration : 1h 52mn\nBit rate mode : Constant\nBit rate : 128 Kbps\nChannel(s) : 2 channels\nChannel positions : Front: L R\nSampling rate : 48.0 KHz\nBit depth : 16 bits\nCompression mode : Lossy\nStream size : 103 MiB (8%)\nAlignment : Aligned on interleaves\nInterleave, duration : 42 ms (1.00 video frame)\nInterleave, preload duration : 512 ms","torrent":{"xt":"urn:btih:f695d2e2cb3943aed4fcb2c8a4cca9efbef90651","amp;dn":"Tracks+2013+BRRip+XviD+titler","amp;tr":["udp%3A%2F%2Ftracker.openbittorrent.com%3A80","udp%3A%2F%2Fopen.demonii.com%3A1337","udp%3A%2F%2Ftracker.coppersurfer.tk%3A6969","udp%3A%2F%2Fexodus.desync.com%3A6969"],"infoHash":"f695d2e2cb3943aed4fcb2c8a4cca9efbef90651","infoHashBuffer":{"type":"Buffer","data":[246,149,210,226,203,57,67,174,212,252,178,200,164,204,169,239,190,249,6,81]},"announce":[],"urlList":[]}}